TITLE ""
FILE "1Q_t_1749-1758.mp3" MP3
  TRACK 01 AUDIO
    TITLE "1Q_t_1749-1758_01"
    INDEX 01 00:00:00
  TRACK 02 AUDIO
    TITLE "1Q_t_1749-1758_02"
    INDEX 01 00:00:10
  TRACK 03 AUDIO
    TITLE "1Q_t_1749-1758_03"
    INDEX 01 00:01:27
  TRACK 04 AUDIO
    TITLE "1Q_t_1749-1758_04"
    INDEX 01 00:01:37
  TRACK 05 AUDIO
    TITLE "1Q_t_1749-1758_05"
    INDEX 01 00:03:42
  TRACK 06 AUDIO
    TITLE "1Q_t_1749-1758_06"
    INDEX 01 00:03:52
  TRACK 07 AUDIO
    TITLE "1Q_t_1749-1758_07"
    INDEX 01 00:08:33
  TRACK 08 AUDIO
    TITLE "1Q_t_1749-1758_08"
    INDEX 01 00:09:09
  TRACK 09 AUDIO
    TITLE "1Q_t_1749-1758_09"
    INDEX 01 00:10:15
  TRACK 10 AUDIO
    TITLE "1Q_t_1749-1758_10"
    INDEX 01 00:10:24
  TRACK 11 AUDIO
    TITLE "1Q_t_1749-1758_11"
    INDEX 01 00:11:26
  TRACK 12 AUDIO
    TITLE "1Q_t_1749-1758_12"
    INDEX 01 00:11:34
  TRACK 13 AUDIO
    TITLE "1Q_t_1749-1758_13"
    INDEX 01 00:15:45
  TRACK 14 AUDIO
    TITLE "1Q_t_1749-1758_14"
    INDEX 01 00:16:17
  TRACK 15 AUDIO
    TITLE "1Q_t_1749-1758_15"
    INDEX 01 00:17:28
  TRACK 16 AUDIO
    TITLE "1Q_t_1749-1758_16"
    INDEX 01 00:17:38
  TRACK 17 AUDIO
    TITLE "1Q_t_1749-1758_17"
    INDEX 01 00:19:53
  TRACK 18 AUDIO
    TITLE "1Q_t_1749-1758_18"
    INDEX 01 00:19:63
  TRACK 19 AUDIO
    TITLE "1Q_t_1749-1758_19"
    INDEX 01 00:24:34
  TRACK 20 AUDIO
    TITLE "1Q_t_1749-1758_20"
    INDEX 01 00:25:06
  TRACK 21 AUDIO
    TITLE "1Q_t_1749-1758_21"
    INDEX 01 00:26:25
  TRACK 22 AUDIO
    TITLE "1Q_t_1749-1758_22"
    INDEX 01 00:26:35
  TRACK 23 AUDIO
    TITLE "1Q_t_1749-1758_23"
    INDEX 01 00:28:16
  TRACK 24 AUDIO
    TITLE "1Q_t_1749-1758_24"
    INDEX 01 00:28:24
  TRACK 25 AUDIO
    TITLE "1Q_t_1749-1758_25"
    INDEX 01 00:32:67
  TRACK 26 AUDIO
    TITLE "1Q_t_1749-1758_26"
    INDEX 01 00:33:39
  TRACK 27 AUDIO
    TITLE "1Q_t_1749-1758_27"
    INDEX 01 00:34:46
  TRACK 28 AUDIO
    TITLE "1Q_t_1749-1758_28"
    INDEX 01 00:34:56
  TRACK 29 AUDIO
    TITLE "1Q_t_1749-1758_29"
    INDEX 01 00:37:09
  TRACK 30 AUDIO
    TITLE "1Q_t_1749-1758_30"
    INDEX 01 00:37:17
  TRACK 31 AUDIO
    TITLE "1Q_t_1749-1758_31"
    INDEX 01 00:43:59
  TRACK 32 AUDIO
    TITLE "1Q_t_1749-1758_32"
    INDEX 01 00:44:33
  TRACK 33 AUDIO
    TITLE "1Q_t_1749-1758_33"
    INDEX 01 00:45:44
  TRACK 34 AUDIO
    TITLE "1Q_t_1749-1758_34"
    INDEX 01 00:45:56
  TRACK 35 AUDIO
    TITLE "1Q_t_1749-1758_35"
    INDEX 01 00:46:52
  TRACK 36 AUDIO
    TITLE "1Q_t_1749-1758_36"
    INDEX 01 00:46:59
  TRACK 37 AUDIO
    TITLE "1Q_t_1749-1758_37"
    INDEX 01 00:51:08
  TRACK 38 AUDIO
    TITLE "1Q_t_1749-1758_38"
    INDEX 01 00:51:53
  TRACK 39 AUDIO
    TITLE "1Q_t_1749-1758_39"
    INDEX 01 00:53:07
  TRACK 40 AUDIO
    TITLE "1Q_t_1749-1758_40"
    INDEX 01 00:53:16
  TRACK 41 AUDIO
    TITLE "1Q_t_1749-1758_41"
    INDEX 01 00:55:11
  TRACK 42 AUDIO
    TITLE "1Q_t_1749-1758_42"
    INDEX 01 00:55:21
  TRACK 43 AUDIO
    TITLE "1Q_t_1749-1758_43"
    INDEX 01 00:59:74
  TRACK 44 AUDIO
    TITLE "1Q_t_1749-1758_44"
    INDEX 01 01:00:56
  TRACK 45 AUDIO
    TITLE "1Q_t_1749-1758_45"
    INDEX 01 01:01:69
  TRACK 46 AUDIO
    TITLE "1Q_t_1749-1758_46"
    INDEX 01 01:02:02
  TRACK 47 AUDIO
    TITLE "1Q_t_1749-1758_47"
    INDEX 01 01:04:20
  TRACK 48 AUDIO
    TITLE "1Q_t_1749-1758_48"
    INDEX 01 01:04:28
  TRACK 49 AUDIO
    TITLE "1Q_t_1749-1758_49"
    INDEX 01 01:08:61
  TRACK 50 AUDIO
    TITLE "1Q_t_1749-1758_50"
    INDEX 01 01:09:33
  TRACK 51 AUDIO
    TITLE "1Q_t_1749-1758_51"
    INDEX 01 01:10:60
  TRACK 52 AUDIO
    TITLE "1Q_t_1749-1758_52"
    INDEX 01 01:10:70
  TRACK 53 AUDIO
    TITLE "1Q_t_1749-1758_53"
    INDEX 01 01:12:74
  TRACK 54 AUDIO
    TITLE "1Q_t_1749-1758_54"
    INDEX 01 01:13:07
  TRACK 55 AUDIO
    TITLE "1Q_t_1749-1758_55"
    INDEX 01 01:18:06
  TRACK 56 AUDIO
    TITLE "1Q_t_1749-1758_56"
    INDEX 01 01:18:54
  TRACK 57 AUDIO
    TITLE "1Q_t_1749-1758_57"
    INDEX 01 01:19:59
  TRACK 58 AUDIO
    TITLE "1Q_t_1749-1758_58"
    INDEX 01 01:19:69
  TRACK 59 AUDIO
    TITLE "1Q_t_1749-1758_59"
    INDEX 01 01:23:47
  TRACK 60 AUDIO
    TITLE "1Q_t_1749-1758_60"
    INDEX 01 01:23:57
  TRACK 61 AUDIO
    TITLE "1Q_t_1749-1758_61"
    INDEX 01 01:29:38
